# This file uses centimeters as units for non-parametric coordinates.

mtllib Caja.mtl
g default
v -0.310200 0.018438 0.334353
v -0.271307 0.002327 0.334353
v -0.271307 0.018438 0.373246
v -0.271307 0.057331 0.389357
v -0.310200 0.057331 0.373246
v -0.326310 0.057331 0.334353
v 0.310200 0.018438 0.334353
v 0.326310 0.057331 0.334353
v 0.310200 0.057331 0.373246
v 0.271307 0.057331 0.389357
v 0.271307 0.018438 0.373246
v 0.271307 0.002327 0.334353
v -0.310200 0.536309 0.334353
v -0.326310 0.497416 0.334353
v -0.310200 0.497416 0.373246
v -0.271307 0.497416 0.389357
v -0.271307 0.536309 0.373246
v -0.271307 0.552419 0.334353
v 0.310200 0.536309 0.334353
v 0.271307 0.552419 0.334353
v 0.271307 0.536309 0.373246
v 0.271307 0.497416 0.389357
v 0.310200 0.497416 0.373246
v 0.326310 0.497416 0.334353
v -0.310200 0.497416 -0.373246
v -0.326310 0.497416 -0.334353
v -0.310200 0.536309 -0.334353
v -0.271307 0.552419 -0.334353
v -0.271307 0.536309 -0.373246
v -0.271307 0.497416 -0.389357
v 0.310200 0.497416 -0.373246
v 0.271307 0.497416 -0.389357
v 0.271307 0.536309 -0.373246
v 0.271307 0.552419 -0.334353
v 0.310200 0.536309 -0.334353
v 0.326310 0.497416 -0.334353
v -0.310200 0.018438 -0.334353
v -0.326310 0.057331 -0.334353
v -0.310200 0.057331 -0.373246
v -0.271307 0.057331 -0.389357
v -0.271307 0.018438 -0.373246
v -0.271307 0.002327 -0.334353
v 0.310200 0.018438 -0.334353
v 0.271307 0.002327 -0.334353
v 0.271307 0.018438 -0.373246
v 0.271307 0.057331 -0.389357
v 0.310200 0.057331 -0.373246
v 0.326310 0.057331 -0.334353
v -0.303052 0.025586 0.366098
v 0.303052 0.025586 0.366098
v -0.303052 0.529161 0.366098
v 0.303052 0.529161 0.366098
v -0.303052 0.529161 -0.366098
v 0.303052 0.529161 -0.366098
v -0.303052 0.025586 -0.366098
v 0.303052 0.025586 -0.366098
vt 0.456595 0.624519
vt 0.099002 0.419822
vt 0.459719 0.461760
vt 0.102708 0.226737
vt 0.255610 0.422828
vt 0.258735 0.260069
vt 0.259317 0.229744
vt 0.095192 0.618249
vt 0.457113 0.426697
vt 0.460238 0.263938
vt 0.262544 0.061642
vt 0.105936 0.058635
vt 0.291618 0.458533
vt 0.457343 0.230201
vt 0.460468 0.067442
vt 0.102126 0.257063
vt 0.289011 0.423470
vt 0.292136 0.260711
vt 0.300735 0.227194
vt 0.303859 0.064435
vt 0.288493 0.621291
vt 0.098420 0.450147
vt 0.255028 0.453154
vt 0.251801 0.621256
vt 0.460976 0.641107
vt 0.078936 0.445074
vt 0.079317 0.425216
vt 0.470311 0.630554
vt 0.098288 0.435977
vt 0.083045 0.231059
vt 0.464734 0.445351
vt 0.102033 0.240892
vt 0.473657 0.456255
vt 0.082663 0.250917
vt 0.274692 0.448832
vt 0.283996 0.439878
vt 0.255703 0.438999
vt 0.274478 0.423643
vt 0.287754 0.244122
vt 0.278801 0.234817
vt 0.277620 0.259980
vt 0.259448 0.243914
vt 0.258444 0.635215
vt 0.293509 0.243560
vt 0.461494 0.443285
vt 0.271284 0.626329
vt 0.281050 0.232588
vt 0.470829 0.432732
vt 0.297267 0.047804
vt 0.269718 0.047948
vt 0.474175 0.258433
vt 0.284396 0.058290
vt 0.282208 0.057320
vt 0.465252 0.247529
vt 0.075529 0.622571
vt 0.283478 0.637700
vt 0.463935 0.246832
vt 0.088018 0.631944
vt 0.274555 0.626796
vt 0.476806 0.236346
vt 0.287236 0.441944
vt 0.086452 0.053562
vt 0.480152 0.062048
vt 0.277901 0.452497
vt 0.099292 0.044676
vt 0.467693 0.051076
vt 0.470105 0.641283
vt 0.079111 0.435944
vt 0.082869 0.240189
vt 0.473863 0.445527
vt 0.274867 0.439703
vt 0.278625 0.243947
vt 0.271109 0.635459
vt 0.470623 0.443461
vt 0.280844 0.243317
vt 0.284602 0.047561
vt 0.474381 0.247705
vt 0.282383 0.048191
vt 0.075353 0.631701
vt 0.476600 0.247075
vt 0.274349 0.637524
vt 0.278107 0.441769
vt 0.480358 0.051319
vt 0.086627 0.044433
vn -0.027137 -0.999385 0.022197
vn -0.381027 -0.924450 0.014479
vn -0.381027 -0.924450 -0.014479
vn -0.027137 -0.999385 -0.022197
vn -0.924418 -0.381142 0.013497
vn -0.999210 -0.033008 0.022137
vn -0.999210 -0.033008 -0.022137
vn -0.924418 -0.381142 -0.013497
vn -0.026993 -0.032925 0.999093
vn -0.016514 -0.380788 0.924515
vn 0.016514 -0.380788 0.924515
vn 0.026993 -0.032925 0.999093
vn -0.018424 -0.924572 0.380562
vn 0.027137 -0.999385 0.022197
vn 0.018424 -0.924572 0.380562
vn -0.924670 -0.022020 0.380132
vn -0.924670 0.022020 0.380132
vn -0.999210 0.033008 0.022137
vn -0.380242 -0.021107 0.924646
vn -0.026993 0.032925 0.999093
vn -0.380242 0.021107 0.924646
vn 0.999210 -0.033008 0.022137
vn 0.924418 -0.381142 0.013497
vn 0.924418 -0.381142 -0.013497
vn 0.999210 -0.033008 -0.022137
vn 0.381027 -0.924450 0.014479
vn 0.027137 -0.999385 -0.022197
vn 0.381027 -0.924450 -0.014479
vn 0.380242 -0.021107 0.924646
vn 0.380242 0.021107 0.924646
vn 0.026993 0.032925 0.999093
vn 0.924670 -0.022020 0.380132
vn 0.999210 0.033008 0.022137
vn 0.924670 0.022020 0.380132
vn -0.924418 0.381141 0.013497
vn -0.924418 0.381141 -0.013497
vn -0.999210 0.033008 -0.022137
vn -0.381027 0.924451 0.014479
vn -0.027137 0.999385 0.022197
vn -0.027137 0.999385 -0.022197
vn -0.381027 0.924451 -0.014479
vn -0.018424 0.924572 0.380561
vn 0.018424 0.924572 0.380561
vn 0.027137 0.999385 0.022197
vn -0.016514 0.380787 0.924515
vn 0.016514 0.380787 0.924515
vn 0.381027 0.924451 0.014479
vn 0.381027 0.924451 -0.014479
vn 0.027137 0.999385 -0.022197
vn 0.924418 0.381141 0.013497
vn 0.999210 0.033008 -0.022137
vn 0.924418 0.381141 -0.013497
vn -0.924670 0.022020 -0.380132
vn -0.924670 -0.022020 -0.380132
vn -0.380242 0.021107 -0.924646
vn -0.026993 0.032925 -0.999093
vn -0.026993 -0.032925 -0.999093
vn -0.380242 -0.021107 -0.924646
vn -0.016514 0.380787 -0.924515
vn 0.016514 0.380787 -0.924515
vn 0.026993 0.032925 -0.999093
vn -0.018424 0.924572 -0.380561
vn 0.018424 0.924572 -0.380561
vn 0.380242 0.021107 -0.924646
vn 0.380242 -0.021107 -0.924646
vn 0.026993 -0.032925 -0.999093
vn 0.924670 0.022020 -0.380132
vn 0.924670 -0.022020 -0.380132
vn -0.018424 -0.924572 -0.380562
vn 0.018424 -0.924572 -0.380562
vn -0.016514 -0.380788 -0.924515
vn 0.016514 -0.380788 -0.924515
vn -0.887919 -0.325269 0.325269
vn -0.325269 -0.887919 0.325269
vn -0.325269 -0.325269 0.887919
vn 0.325269 -0.887919 0.325269
vn 0.887919 -0.325269 0.325269
vn 0.325269 -0.325269 0.887919
vn -0.325270 0.887918 0.325270
vn -0.887919 0.325269 0.325270
vn -0.325270 0.325269 0.887919
vn 0.887919 0.325269 0.325270
vn 0.325270 0.887918 0.325270
vn 0.325270 0.325269 0.887918
vn -0.325270 0.325269 -0.887918
vn -0.887919 0.325269 -0.325270
vn -0.325270 0.887918 -0.325270
vn 0.887919 0.325269 -0.325270
vn 0.325270 0.325269 -0.887919
vn 0.325270 0.887918 -0.325270
vn -0.325269 -0.887919 -0.325269
vn -0.887919 -0.325269 -0.325269
vn -0.325269 -0.325269 -0.887919
vn 0.887919 -0.325269 -0.325269
vn 0.325269 -0.887919 -0.325269
vn 0.325269 -0.325269 -0.887919
s 1
g Caja_2
usemtl initialShadingGroup
f 2/1/1 1/25/2 37/56/3 42/21/4
s 2
f 1/26/5 6/22/6 38/8/7 37/55/8
s 3
f 4/2/9 3/27/10 11/34/11 10/16/12
s 1
f 3/28/13 2/1/1 12/3/14 11/33/15
s 2
f 6/22/6 5/29/16 15/37/17 14/23/18
s 3
f 5/29/19 4/2/9 16/5/20 15/37/21
s 4
f 8/4/22 7/30/23 43/62/24 48/12/25
s 1
f 7/31/26 12/3/14 44/13/27 43/61/28
s 3
f 10/16/12 9/32/29 23/42/30 22/6/31
s 4
f 9/32/32 8/4/22 24/7/33 23/42/34
s 2
f 14/23/18 13/35/35 27/46/36 26/24/37
s 5
f 13/36/38 18/17/39 28/9/40 27/45/41
f 18/17/39 17/38/42 21/41/43 20/18/44
s 3
f 17/38/45 16/5/20 22/6/31 21/41/46
s 5
f 20/18/44 19/39/47 35/54/48 34/10/49
s 4
f 19/40/50 24/7/33 36/11/51 35/53/52
s 2
f 26/24/37 25/43/53 39/58/54 38/8/7
s 6
f 25/44/55 30/19/56 40/14/57 39/57/58
f 30/19/56 29/47/59 33/52/60 32/20/61
s 5
f 29/48/62 28/9/40 34/10/49 33/51/63
s 6
f 32/20/61 31/49/64 47/66/65 46/15/66
s 4
f 31/50/67 36/11/51 48/12/25 47/65/68
s 1
f 42/21/4 41/59/69 45/64/70 44/13/27
s 6
f 41/60/71 40/14/57 46/15/66 45/63/72
s 3
f 4/2/9 10/16/12 22/6/31 16/5/20
s 5
f 18/17/39 20/18/44 34/10/49 28/9/40
s 6
f 30/19/56 32/20/61 46/15/66 40/14/57
s 1
f 42/21/4 44/13/27 12/3/14 2/1/1
s 4
f 8/4/22 48/12/25 36/11/51 24/7/33
s 2
f 38/8/7 6/22/6 14/23/18 26/24/37
f 5/29/16 6/22/6 1/26/5 49/68/73
s 1
f 1/25/2 2/1/1 3/28/13 49/67/74
s 3
f 3/27/10 4/2/9 5/29/19 49/68/75
s 1
f 11/33/15 12/3/14 7/31/26 50/70/76
s 4
f 7/30/23 8/4/22 9/32/32 50/69/77
s 3
f 9/32/29 10/16/12 11/34/11 50/69/78
s 5
f 17/38/42 18/17/39 13/36/38 51/71/79
s 2
f 13/35/35 14/23/18 15/37/17 51/71/80
s 3
f 15/37/21 16/5/20 17/38/45 51/71/81
s 4
f 23/42/34 24/7/33 19/40/50 52/72/82
s 5
f 19/39/47 20/18/44 21/41/43 52/72/83
s 3
f 21/41/46 22/6/31 23/42/30 52/72/84
s 6
f 29/47/59 30/19/56 25/44/55 53/75/85
s 2
f 25/43/53 26/24/37 27/46/36 53/73/86
s 5
f 27/45/41 28/9/40 29/48/62 53/74/87
s 4
f 35/53/52 36/11/51 31/50/67 54/78/88
s 6
f 31/49/64 32/20/61 33/52/60 54/76/89
s 5
f 33/51/63 34/10/49 35/54/48 54/77/90
s 1
f 41/59/69 42/21/4 37/56/3 55/81/91
s 2
f 37/55/8 38/8/7 39/58/54 55/79/92
s 6
f 39/57/58 40/14/57 41/60/71 55/80/93
s 4
f 47/65/68 48/12/25 43/62/24 56/84/94
s 1
f 43/61/28 44/13/27 45/64/70 56/82/95
s 6
f 45/63/72 46/15/66 47/66/65 56/83/96
