# This file uses centimeters as units for non-parametric coordinates.

mtllib Pelota OBEJOTA.mtl
g default
v -0.277778 0.225002 0.277778
v 0.277778 0.225002 0.277778
v -0.277778 0.780558 0.277778
v 0.277778 0.780558 0.277778
v -0.277778 0.780558 -0.277778
v 0.277778 0.780558 -0.277778
v -0.277778 0.225002 -0.277778
v 0.277778 0.225002 -0.277778
v -0.375000 0.877780 0.000000
v 0.375000 0.502780 -0.375000
v 0.000000 0.127780 -0.375000
v -0.375000 0.502780 -0.375000
v 0.375000 0.127780 0.000000
v -0.375000 0.127780 0.000000
v 0.000000 0.127780 0.375000
v 0.375000 0.502780 0.375000
v 0.000000 0.877780 0.375000
v -0.375000 0.502780 0.375000
v 0.375000 0.877780 0.000000
v 0.000000 0.877780 -0.375000
v 0.000000 0.502780 0.500000
v 0.000000 1.002780 0.000000
v 0.000000 0.502780 -0.500000
v 0.000000 0.002780 0.000000
v 0.500000 0.502780 0.000000
v -0.500000 0.502780 0.000000
vt 0.222222 0.222222
vt 0.125000 0.125000
vt 0.000000 0.500000
vt 0.125000 0.500000
vt 0.222222 0.222222
vt 0.125000 0.500000
vt 0.222222 0.777778
vt 0.125000 0.875000
vt 0.222222 0.777778
vt 0.500000 1.000000
vt 0.500000 0.875000
vt 0.500000 0.875000
vt 0.777778 0.777778
vt 0.875000 0.875000
vt 0.777778 0.777778
vt 1.000000 0.500000
vt 0.875000 0.500000
vt 0.875000 0.500000
vt 0.777778 0.222222
vt 0.875000 0.125000
vt 0.777778 0.222222
vt 0.500000 0.000000
vt 0.500000 0.125000
vt 0.500000 0.125000
vt 0.500000 0.500000
vt 0.500000 0.500000
vn -0.577350 -0.577350 0.577350
vn -0.000000 -0.707107 0.707107
vn -0.000000 0.000000 1.000000
vn -0.707107 0.000000 0.707107
vn 0.577350 -0.577350 0.577350
vn 0.707107 0.000000 0.707107
vn 0.577350 0.577350 0.577350
vn -0.000000 0.707107 0.707107
vn -0.577350 0.577350 0.577350
vn 0.000000 1.000000 0.000000
vn -0.707107 0.707107 0.000000
vn 0.707107 0.707107 0.000000
vn 0.577350 0.577350 -0.577350
vn -0.000000 0.707107 -0.707107
vn -0.577350 0.577350 -0.577350
vn -0.000000 0.000000 -1.000000
vn -0.707107 -0.000000 -0.707107
vn 0.707107 0.000000 -0.707107
vn 0.577350 -0.577350 -0.577350
vn -0.000000 -0.707107 -0.707107
vn -0.577350 -0.577350 -0.577350
vn 0.000000 -1.000000 0.000000
vn -0.707107 -0.707107 -0.000000
vn 0.707107 -0.707107 0.000000
vn 1.000000 0.000000 0.000000
vn -1.000000 0.000000 -0.000000
s 1
g Pelota
usemtl initialShadingGroup
f 1/1/1 15/2/2 21/3/3 18/4/4
f 15/2/2 2/5/5 16/6/6 21/3/3
f 21/3/3 16/6/6 4/7/7 17/8/8
f 18/4/4 21/3/3 17/8/8 3/9/9
f 3/9/9 17/8/8 22/10/10 9/11/11
f 17/8/8 4/7/7 19/12/12 22/10/10
f 22/10/10 19/12/12 6/13/13 20/14/14
f 9/11/11 22/10/10 20/14/14 5/15/15
f 5/15/15 20/14/14 23/16/16 12/17/17
f 20/14/14 6/13/13 10/18/18 23/16/16
f 23/16/16 10/18/18 8/19/19 11/20/20
f 12/17/17 23/16/16 11/20/20 7/21/21
f 7/21/21 11/20/20 24/22/22 14/23/23
f 11/20/20 8/19/19 13/24/24 24/22/22
f 24/22/22 13/24/24 2/5/5 15/2/2
f 14/23/23 24/22/22 15/2/2 1/1/1
f 2/5/5 13/24/24 25/25/25 16/6/6
f 13/24/24 8/19/19 10/18/18 25/25/25
f 25/25/25 10/18/18 6/13/13 19/12/12
f 16/6/6 25/25/25 19/12/12 4/7/7
f 7/21/21 14/23/23 26/26/26 12/17/17
f 14/23/23 1/1/1 18/4/4 26/26/26
f 26/26/26 18/4/4 3/9/9 9/11/11
f 12/17/17 26/26/26 9/11/11 5/15/15
