# This file uses centimeters as units for non-parametric coordinates.

mtllib Llanta Obejota.mtl
g default
v 0.394206 0.269236 -0.174873
v 0.197103 0.201195 -0.177885
v 0.000000 0.180640 -0.190455
v -0.197103 0.201195 -0.182953
v 0.462248 0.466340 -0.197949
v 0.482802 0.663443 -0.210252
v 0.462248 0.860546 -0.197949
v -0.394206 0.269236 -0.170970
v -0.462248 0.201195 -0.117975
v -0.462248 0.201195 0.117975
v -0.462248 0.466340 -0.197949
v -0.599466 0.432319 -0.138338
v -0.599466 0.432319 0.138338
v -0.482802 0.663443 -0.210252
v -0.638687 0.663443 -0.144489
v -0.638687 0.663443 0.144489
v -0.462248 0.860546 -0.197949
v -0.599466 0.894567 -0.138338
v -0.599466 0.894567 0.138338
v -0.394206 0.269236 0.188160
v -0.197103 0.201195 0.175928
v 0.000000 0.180640 0.188230
v 0.197103 0.201195 0.175928
v -0.462248 0.466340 0.197117
v -0.482802 0.663443 0.209420
v -0.462248 0.860546 0.197117
v 0.394206 0.269236 0.176735
v 0.462248 0.201195 0.117975
v 0.462248 0.201195 -0.117975
v 0.462248 0.466340 0.197117
v 0.599466 0.432319 0.127200
v 0.599466 0.432319 -0.127223
v 0.482802 0.663443 0.209420
v 0.638687 0.663443 0.125920
v 0.638687 0.663443 -0.129650
v 0.462248 0.860546 0.197117
v 0.599466 0.894567 0.126932
v 0.599466 0.894567 -0.119372
v 0.231124 0.063977 0.115697
v 0.000000 0.024755 0.129609
v -0.231124 0.063977 0.117247
v 0.231124 0.063977 -0.122498
v 0.000000 0.024755 -0.132495
v -0.231124 0.063977 -0.122431
v 0.394206 1.057649 -0.189930
v 0.197103 1.125691 -0.208252
v 0.000000 1.146245 -0.198036
v -0.197103 1.125691 -0.192399
v -0.394206 1.057649 -0.189930
v 0.462248 1.125691 -0.117975
v 0.231124 1.262909 -0.123542
v 0.000000 1.302130 -0.139835
v -0.231124 1.262909 -0.138338
v -0.462248 1.125691 -0.131096
v 0.462248 1.125691 0.117975
v 0.231124 1.262909 0.123975
v 0.000000 1.302130 0.125303
v -0.231124 1.262909 0.138338
v -0.462248 1.125691 0.130826
v 0.394206 1.057649 0.174672
v 0.197103 1.125691 0.173844
v 0.000000 1.146245 0.186147
v -0.197103 1.125691 0.173844
v -0.394206 1.057649 0.164887
v 0.285830 0.378032 -0.200019
v 0.226685 0.436885 -0.179584
v -0.000000 0.260469 -0.202171
v 0.000000 0.343377 -0.180722
v -0.286415 0.377523 -0.198178
v -0.226947 0.436647 -0.178596
v 0.397421 0.663443 -0.214275
v 0.317644 0.663443 -0.187041
v -0.397421 0.663443 -0.214275
v -0.317644 0.663443 -0.187041
v 0.282555 0.946119 -0.209138
v 0.225032 0.888743 -0.184512
v -0.284524 0.947869 -0.203754
v -0.226122 0.889535 -0.181580
v 0.000000 1.064337 -0.206931
v -0.000000 0.982580 -0.183245
v -0.285887 0.378026 0.196939
v -0.226722 0.436864 0.176648
v 0.000000 0.260588 0.199782
v 0.000000 0.343432 0.178200
v 0.285887 0.378026 0.196939
v 0.226722 0.436864 0.176648
v -0.396882 0.663443 0.212670
v -0.317418 0.663443 0.184908
v 0.396860 0.663443 0.212671
v 0.317412 0.663443 0.184903
v -0.287026 0.949688 0.193896
v -0.227206 0.890411 0.175052
v 0.282550 0.949309 0.200150
v 0.223757 0.890179 0.179574
v -0.000000 1.066764 0.198464
v -0.000000 0.983680 0.177515
v -0.259668 0.663421 0.033223
v -0.185494 0.478046 0.032027
v -0.000000 0.401689 0.032072
v 0.185407 0.478125 0.031698
v 0.259664 0.663421 0.033220
v 0.183418 0.848373 0.031477
v -0.000000 0.924953 0.030900
v -0.185455 0.848749 0.030260
vt 0.197014 0.674132
vt 0.135750 0.671720
vt 0.033847 0.184424
vt 0.023276 0.268845
vt 0.574408 0.330652
vt 0.567939 0.262940
vt 0.561674 0.434364
vt 0.074525 0.548380
vt 0.090268 0.202115
vt 0.084290 0.270917
vt 0.258249 0.671096
vt 0.027346 0.355499
vt 0.594559 0.402150
vt 0.571757 0.193469
vt 0.037560 0.559056
vt 0.038101 0.665175
vt 0.114909 0.135736
vt 0.084317 0.340373
vt 0.319483 0.667578
vt 0.318892 0.551611
vt 0.596979 0.124251
vt 0.355862 0.670599
vt 0.355239 0.548100
vt 0.187081 0.684373
vt 0.248334 0.684427
vt 0.957106 0.347488
vt 0.974682 0.262045
vt 0.412568 0.202665
vt 0.417882 0.270541
vt 0.424355 0.097771
vt 0.308324 0.804094
vt 0.895624 0.329152
vt 0.902137 0.261400
vt 0.125838 0.683304
vt 0.963669 0.174249
vt 0.390850 0.133068
vt 0.411909 0.338304
vt 0.345892 0.690509
vt 0.344823 0.795967
vt 0.874027 0.398874
vt 0.897549 0.192954
vt 0.064551 0.686649
vt 0.911882 0.086811
vt 0.389022 0.407531
vt 0.873464 0.124550
vt 0.027104 0.793209
vt 0.028215 0.683624
vt 0.139132 0.920066
vt 0.104807 0.920470
vt 0.095675 0.855499
vt 0.137601 0.851941
vt 0.140193 0.966980
vt 0.098191 0.965370
vt 0.177176 0.918334
vt 0.176448 0.852722
vt 0.177671 0.963035
vt 0.328992 0.920662
vt 0.290927 0.920145
vt 0.292605 0.852024
vt 0.331439 0.855252
vt 0.327312 0.965371
vt 0.289765 0.967056
vt 0.252970 0.918715
vt 0.253911 0.851813
vt 0.252270 0.964428
vt 0.106607 0.415000
vt 0.079316 0.444576
vt 0.146776 0.372733
vt 0.180070 0.436014
vt 0.169707 0.489216
vt 0.111748 0.271477
vt 0.250168 0.411172
vt 0.250931 0.439364
vt 0.253474 0.504307
vt 0.151089 0.171219
vt 0.142093 0.271631
vt 0.170681 0.350097
vt 0.249564 0.380028
vt 0.349113 0.368519
vt 0.319835 0.431673
vt 0.333799 0.485026
vt 0.180956 0.106573
vt 0.171716 0.192634
vt 0.326453 0.347269
vt 0.421016 0.442295
vt 0.165427 0.047800
vt 0.251109 0.101427
vt 0.250727 0.129788
vt 0.249994 0.161072
vt 0.358259 0.269993
vt 0.389209 0.270472
vt 0.251442 0.036332
vt 0.321524 0.107085
vt 0.351287 0.171150
vt 0.328071 0.192466
vt 0.337906 0.047308
vt 0.805399 0.425563
vt 0.834295 0.360629
vt 0.822382 0.483328
vt 0.735002 0.432154
vt 0.734834 0.403976
vt 0.873202 0.261401
vt 0.735887 0.496525
vt 0.664665 0.426977
vt 0.634844 0.362806
vt 0.811483 0.339200
vt 0.734822 0.372406
vt 0.842417 0.261870
vt 0.834134 0.164104
vt 0.648837 0.486001
vt 0.657734 0.340568
vt 0.811387 0.185578
vt 0.804666 0.102771
vt 0.596419 0.262430
vt 0.627357 0.262721
vt 0.735207 0.153080
vt 0.735856 0.121280
vt 0.736335 0.091789
vt 0.824050 0.035443
vt 0.635492 0.162819
vt 0.658399 0.185414
vt 0.666185 0.099267
vt 0.736308 0.026542
vt 0.650873 0.041536
vt 0.563312 0.089455
vt 0.407202 0.684971
vt 0.406025 0.801014
vt 0.468393 0.691065
vt 0.467317 0.797179
vt 0.478328 0.663425
vt 0.417115 0.670950
vt 0.416518 0.553559
vt 0.477771 0.553836
vt 0.401332 0.924351
vt 0.367027 0.922641
vt 0.370331 0.856893
vt 0.412268 0.859659
vt 0.406711 0.969418
vt 0.364758 0.967790
vt 0.215273 0.918490
vt 0.215273 0.852241
vt 0.215273 0.963847
vt 0.196362 0.546185
vt 0.259968 0.546895
vt 0.135126 0.549221
vt 0.080849 0.096696
vt 0.124733 0.792352
vt 0.063331 0.803631
vt 0.185934 0.797523
vt 0.247192 0.797070
vt 0.907564 0.431833
vt 0.473784 0.357065
vt 0.490439 0.271016
vt 0.474602 0.185063
vt 0.309539 0.689132
vt 0.511843 0.177884
vt 0.503515 0.265384
vt 0.518684 0.346202
vt 0.074455 0.663016
vn -0.224621 -0.269741 -0.936368
vn -0.356559 -0.269795 -0.894470
vn -0.356559 -0.269795 -0.894470
vn -0.236822 -0.139467 -0.961491
vn -0.859874 -0.510506 0.000000
vn -0.859874 -0.510506 0.000000
vn -0.859874 -0.510506 0.000000
vn -0.859874 -0.510506 0.000000
vn -0.417779 -0.259860 0.870594
vn -0.205205 -0.266267 0.941803
vn -0.241676 -0.129883 0.961625
vn -0.417779 -0.259860 0.870594
vn -0.382430 -0.092999 -0.919292
vn -0.382430 -0.092999 -0.919292
vn -0.244701 -0.001246 -0.969598
vn -0.985905 -0.167307 0.000000
vn -0.985905 -0.167307 0.000000
vn -0.985905 -0.167307 0.000000
vn -0.985905 -0.167307 0.000000
vn -0.378057 -0.092468 0.921153
vn -0.233815 0.000685 0.972281
vn -0.378057 -0.092468 0.921153
vn -0.382430 0.092999 -0.919293
vn -0.382430 0.092999 -0.919293
vn -0.250129 0.117120 -0.961103
vn -0.985905 0.167307 -0.000000
vn -0.985905 0.167307 -0.000000
vn -0.985905 0.167307 -0.000000
vn -0.985905 0.167307 -0.000000
vn -0.378057 0.092469 0.921153
vn -0.214301 0.131244 0.967910
vn -0.378057 0.092469 0.921153
vn -0.401180 0.223949 -0.888201
vn -0.401180 0.223949 -0.888201
vn -0.220500 0.228819 -0.948168
vn -0.859874 0.510506 -0.000000
vn -0.859874 0.510506 -0.000000
vn -0.859874 0.510506 -0.000000
vn -0.859874 0.510506 -0.000000
vn -0.303214 0.231135 0.924466
vn -0.181634 0.217317 0.959053
vn -0.303214 0.231135 0.924466
vn 0.223955 -0.271370 0.936057
vn 0.416773 -0.259992 0.871036
vn 0.416773 -0.259992 0.871036
vn 0.273318 -0.133208 0.952656
vn 0.859874 -0.510506 0.000000
vn 0.859874 -0.510506 0.000000
vn 0.859874 -0.510506 0.000000
vn 0.859874 -0.510506 0.000000
vn 0.411644 -0.263174 -0.872519
vn 0.232758 -0.268967 -0.934602
vn 0.275696 -0.138291 -0.951245
vn 0.411644 -0.263174 -0.872519
vn 0.454137 -0.086216 0.886750
vn 0.454137 -0.086216 0.886750
vn 0.287452 -0.000392 0.957795
vn 0.985905 -0.167306 -0.000000
vn 0.985905 -0.167306 -0.000000
vn 0.985905 -0.167306 -0.000000
vn 0.985905 -0.167306 -0.000000
vn 0.448209 -0.093144 -0.889063
vn 0.298123 0.003724 -0.954520
vn 0.448209 -0.093144 -0.889063
vn 0.454694 0.086841 0.886404
vn 0.454694 0.086841 0.886404
vn 0.275544 0.135105 0.951747
vn 0.985905 0.167307 0.000000
vn 0.985905 0.167307 0.000000
vn 0.985905 0.167307 0.000000
vn 0.985905 0.167307 0.000000
vn 0.464296 0.111143 -0.878679
vn 0.316805 0.129873 -0.939557
vn 0.464296 0.111143 -0.878679
vn 0.410452 0.260814 0.873788
vn 0.410452 0.260814 0.873788
vn 0.225767 0.264563 0.937569
vn 0.859874 0.510506 0.000000
vn 0.859874 0.510506 0.000000
vn 0.859874 0.510506 0.000000
vn 0.859874 0.510506 0.000000
vn 0.487634 0.252114 -0.835854
vn 0.297464 0.277118 -0.913631
vn 0.487633 0.252114 -0.835854
vn 0.114345 -0.286713 0.951168
vn 0.193977 -0.418028 0.887483
vn 0.193977 -0.418028 0.887483
vn 0.001154 -0.274403 0.961614
vn 0.107319 -0.362882 0.925634
vn 0.107319 -0.362882 0.925634
vn -0.107313 -0.291198 0.950625
vn -0.103558 -0.359173 0.927508
vn -0.103558 -0.359173 0.927508
vn -0.190438 -0.452316 0.871289
vn -0.190438 -0.452316 0.871289
vn 0.510506 -0.859874 0.000000
vn 0.510506 -0.859874 0.000000
vn 0.510506 -0.859874 0.000000
vn 0.510506 -0.859874 0.000000
vn 0.167307 -0.985905 0.000000
vn 0.167307 -0.985905 0.000000
vn 0.167307 -0.985905 0.000000
vn 0.167307 -0.985905 0.000000
vn -0.167307 -0.985905 0.000000
vn -0.167307 -0.985905 0.000000
vn -0.167307 -0.985905 0.000000
vn -0.167307 -0.985905 0.000000
vn -0.510506 -0.859874 0.000000
vn -0.510506 -0.859874 0.000000
vn -0.510506 -0.859874 0.000000
vn -0.510506 -0.859874 0.000000
vn 0.202912 -0.390359 -0.898024
vn 0.202912 -0.390359 -0.898024
vn 0.116259 -0.277745 -0.953594
vn 0.097837 -0.349056 -0.931981
vn 0.097837 -0.349056 -0.931981
vn 0.005758 -0.267561 -0.963524
vn -0.088891 -0.364403 -0.926989
vn -0.088891 -0.364403 -0.926989
vn -0.115319 -0.272172 -0.955314
vn -0.219548 -0.386286 -0.895869
vn -0.219548 -0.386286 -0.895869
vn 0.108763 0.288696 -0.951223
vn 0.280949 0.490098 -0.825149
vn 0.280949 0.490098 -0.825149
vn -0.009418 0.258303 -0.966018
vn 0.072825 0.430254 -0.899765
vn 0.072825 0.430254 -0.899765
vn -0.095268 0.249638 -0.963641
vn -0.064476 0.350395 -0.934380
vn -0.064476 0.350395 -0.934380
vn -0.207402 0.390254 -0.897043
vn -0.207402 0.390254 -0.897043
vn 0.510506 0.859874 0.000000
vn 0.510506 0.859874 0.000000
vn 0.510506 0.859874 0.000000
vn 0.510506 0.859874 0.000000
vn 0.167307 0.985905 0.000000
vn 0.167307 0.985905 0.000000
vn 0.167307 0.985905 0.000000
vn 0.167307 0.985905 0.000000
vn -0.167307 0.985905 0.000000
vn -0.167307 0.985905 0.000000
vn -0.167307 0.985905 0.000000
vn -0.167307 0.985905 0.000000
vn -0.510506 0.859874 -0.000000
vn -0.510506 0.859874 -0.000000
vn -0.510506 0.859874 -0.000000
vn -0.510506 0.859874 -0.000000
vn 0.191073 0.375783 0.906796
vn 0.191073 0.375783 0.906796
vn 0.105079 0.277809 0.954872
vn 0.077850 0.344366 0.935602
vn 0.077850 0.344366 0.935602
vn 0.009397 0.257372 0.966267
vn -0.041324 0.307685 0.950590
vn -0.041324 0.307685 0.950590
vn -0.087472 0.227215 0.969908
vn -0.155188 0.247017 0.956504
vn -0.155188 0.247017 0.956504
vn -0.012338 -0.044368 -0.998939
vn 0.004406 -0.016561 -0.999853
vn 0.004897 -0.042445 -0.999087
vn -0.055016 -0.008731 -0.998447
vn 0.062087 -0.005344 -0.998057
vn -0.013754 -0.020864 -0.999688
vn 0.027387 -0.005103 -0.999612
vn -0.024442 -0.046001 -0.998642
vn 0.048225 -0.011952 0.998765
vn 0.000000 -0.023387 0.999726
vn -0.025090 -0.035107 0.999069
vn 0.075989 0.002933 0.997104
vn -0.068271 -0.003019 0.997662
vn 0.007136 0.059021 0.998231
vn -0.016954 0.048958 0.998657
vn -0.005649 0.034438 0.999391
vn -0.195759 0.162773 -0.967049
vn -0.303488 -0.017771 -0.952669
vn -0.003491 0.244930 -0.969535
vn 0.190638 0.157700 -0.968911
vn -0.217913 -0.197798 -0.955714
vn 0.297215 -0.010744 -0.954750
vn -0.010397 -0.276979 -0.960820
vn 0.203022 -0.182814 -0.961957
vn 0.196956 0.161792 0.966971
vn 0.296682 0.005916 0.954958
vn 0.930501 0.366272 0.003586
vn 0.930502 0.366283 0.001908
vn 0.902238 0.356636 -0.242441
vn 0.902238 0.356636 -0.242441
vn 0.379409 0.925224 0.003103
vn 0.379409 0.925224 0.003153
vn 0.367498 0.896592 -0.247118
vn 0.367498 0.896592 -0.247118
vn -0.000000 0.247337 0.968930
vn -0.380323 0.924845 0.003930
vn -0.380325 0.924847 0.003379
vn -0.369110 0.896154 -0.246303
vn -0.369110 0.896154 -0.246303
vn -0.196985 0.161805 0.966962
vn 0.189095 -0.150551 0.970349
vn 0.929989 -0.367576 0.003082
vn 0.930000 -0.367483 0.007464
vn 0.901001 -0.361499 -0.239825
vn 0.901001 -0.361499 -0.239825
vn -0.930130 0.367223 0.002166
vn -0.930131 0.367203 0.004345
vn -0.901802 0.358278 -0.241642
vn -0.901802 0.358278 -0.241642
vn -0.298166 -0.007138 0.954487
vn -0.011003 -0.237892 0.971229
vn 0.378826 -0.925435 0.007854
vn 0.378831 -0.925439 0.006980
vn 0.368449 -0.897460 -0.242509
vn 0.368449 -0.897460 -0.242509
vn -0.925566 -0.378562 0.004214
vn -0.925567 -0.378577 0.002349
vn -0.898050 -0.369173 -0.239200
vn -0.898050 -0.369173 -0.239200
vn -0.202460 -0.163558 0.965536
vn -0.386248 -0.922380 0.005312
vn -0.386248 -0.922379 0.005443
vn -0.374121 -0.895716 -0.240264
vn -0.374121 -0.895715 -0.240264
vn 0.875723 0.342671 0.340126
vn 0.875723 0.342671 0.340126
vn 0.356008 0.867586 0.347207
vn 0.356008 0.867586 0.347207
vn -0.355984 0.867613 0.347165
vn -0.355984 0.867613 0.347165
vn -0.875744 0.342645 0.340098
vn -0.875744 0.342645 0.340098
vn -0.872951 -0.354503 0.335090
vn -0.872950 -0.354503 0.335090
vn -0.363676 -0.865301 0.344955
vn -0.363676 -0.865301 0.344955
vn 0.353679 -0.867595 0.349558
vn 0.353679 -0.867595 0.349558
vn 0.876517 -0.338931 0.341823
vn 0.876517 -0.338931 0.341823
s 1
g Llanta
usemtl LlantaSG
f 8/13/1 9/7/2 12/158/3 11/5/4
s off
f 12/2/5 9/159/6 10/8/7 13/145/8
s 2
f 10/146/9 20/17/10 24/9/11 13/3/12
s 1
f 11/5/4 12/158/13 15/157/14 14/6/15
s off
f 15/1/16 12/2/17 13/145/18 16/143/19
s 2
f 13/3/20 24/9/11 25/10/21 16/4/22
s 1
f 14/6/15 15/157/23 18/156/24 17/14/25
s off
f 18/11/26 15/1/27 16/143/28 19/144/29
s 2
f 16/4/30 25/10/21 26/18/31 19/12/32
s 1
f 17/14/25 18/156/33 54/125/34 49/21/35
s off
f 54/19/36 18/11/37 19/144/38 59/20/39
s 2
f 19/12/40 26/18/31 64/66/41 59/67/42
f 27/36/43 28/30/44 31/154/45 30/28/46
s off
f 31/25/47 28/155/48 29/31/49 32/150/50
s 1
f 29/151/51 1/40/52 5/32/53 32/26/54
s 2
f 30/28/46 31/154/55 34/153/56 33/29/57
s off
f 34/24/58 31/25/59 32/150/60 35/149/61
s 1
f 32/26/62 5/32/53 6/33/63 35/27/64
s 2
f 33/29/57 34/153/65 37/152/66 36/37/67
s off
f 37/34/68 34/24/69 35/149/70 38/147/71
s 1
f 35/27/72 6/33/63 7/41/73 38/35/74
s 2
f 36/37/67 37/152/75 55/85/76 60/44/77
s off
f 55/42/78 37/34/79 38/147/80 50/148/81
s 1
f 38/35/82 7/41/73 45/45/83 50/43/84
s 2
f 27/36/43 23/93/85 39/96/86 28/30/87
f 23/93/85 22/87/88 40/92/89 39/96/90
f 22/87/88 21/82/91 41/86/92 40/92/93
f 21/82/91 20/17/10 10/146/94 41/86/95
s off
f 29/31/96 28/155/97 39/38/98 42/39/99
f 39/38/100 40/126/101 43/127/102 42/39/103
f 40/126/104 41/128/105 44/129/106 43/127/107
f 41/15/108 10/8/109 9/159/110 44/16/111
s 1
f 29/151/112 42/99/113 2/97/114 1/40/52
f 42/99/115 43/103/116 3/100/117 2/97/114
f 43/103/118 44/110/119 4/104/120 3/100/117
f 44/110/121 9/7/122 8/13/1 4/104/120
f 45/45/83 46/113/123 51/119/124 50/43/125
f 46/113/123 47/118/126 52/123/127 51/119/128
f 47/118/126 48/122/129 53/124/130 52/123/131
f 48/122/129 49/21/35 54/125/132 53/124/133
s off
f 55/42/134 50/148/135 51/46/136 56/47/137
f 51/130/138 52/131/139 57/132/140 56/133/141
f 52/131/142 53/22/143 58/23/144 57/132/145
f 53/22/146 54/19/147 59/20/148 58/23/149
s 2
f 55/85/150 56/81/151 61/80/152 60/44/77
f 56/81/153 57/74/154 62/73/155 61/80/152
f 57/74/156 58/70/157 63/69/158 62/73/155
f 58/70/159 59/67/160 64/66/41 63/69/158
s 1
f 1/40/52 2/97/114 65/98/161 5/32/53
f 2/97/114 3/100/117 67/101/162 65/98/161
f 3/100/117 4/104/120 69/105/163 67/101/162
f 4/104/120 8/13/1 11/5/4 69/105/163
f 5/32/53 65/98/161 71/102/164 6/33/63
f 69/105/163 11/5/4 14/6/15 73/114/165
f 6/33/63 71/102/164 75/109/166 7/41/73
f 73/114/165 14/6/15 17/14/25 77/120/167
f 7/41/73 75/109/166 46/113/123 45/45/83
f 75/109/166 79/117/168 47/118/126 46/113/123
f 79/117/168 77/120/167 48/122/129 47/118/126
f 77/120/167 17/14/25 49/21/35 48/122/129
s 2
f 20/17/10 21/82/91 81/75/169 24/9/11
f 21/82/91 22/87/88 83/88/170 81/75/169
f 22/87/88 23/93/85 85/94/171 83/88/170
f 23/93/85 27/36/43 30/28/46 85/94/171
f 24/9/11 81/75/169 87/71/172 25/10/21
f 85/94/171 30/28/46 33/29/57 89/91/173
f 25/10/21 87/71/172 91/68/174 26/18/31
f 89/91/173 33/29/57 36/37/67 93/79/175
f 26/18/31 91/68/174 63/69/158 64/66/41
f 91/68/174 95/72/176 62/73/155 63/69/158
f 95/72/176 93/79/175 61/80/152 62/73/155
f 93/79/175 36/37/67 60/44/77 61/80/152
s 1
f 65/98/161 66/106/177 72/108/178 71/102/164
f 66/106/177 65/98/161 67/101/162 68/107/179
f 68/107/179 67/101/162 69/105/163 70/111/180
f 71/102/164 72/108/178 76/112/181 75/109/166
f 70/111/180 69/105/163 73/114/165 74/115/182
f 75/109/166 76/112/181 80/116/183 79/117/168
f 74/115/182 73/114/165 77/120/167 78/121/184
f 78/121/184 77/120/167 79/117/168 80/116/183
s 2
f 81/75/169 82/83/185 88/76/186 87/71/172
s 25
f 97/48/187 98/49/188 70/50/189 74/51/190
s 26
f 98/134/191 99/135/192 68/136/193 70/137/194
s 2
f 82/83/185 81/75/169 83/88/170 84/89/195
s 27
f 99/135/196 100/57/197 66/60/198 68/136/199
s 2
f 84/89/195 83/88/170 85/94/171 86/95/200
f 87/71/172 88/76/186 92/77/201 91/68/174
s 28
f 104/54/202 97/48/203 74/51/204 78/55/205
s 29
f 100/57/206 101/58/207 72/59/208 66/60/209
s 2
f 86/95/200 85/94/171 89/91/173 90/90/210
f 91/68/174 92/77/201 96/78/211 95/72/176
s 30
f 103/140/212 104/54/213 78/55/214 80/141/215
s 31
f 101/58/216 102/63/217 76/64/218 72/59/219
s 2
f 90/90/210 89/91/173 93/79/175 94/84/220
s 32
f 102/63/221 103/140/222 80/141/223 76/64/224
s 2
f 94/84/220 93/79/175 95/72/176 96/78/211
s 25
f 88/52/225 82/53/226 98/49/188 97/48/187
s 26
f 82/138/227 84/139/228 99/135/192 98/134/191
s 27
f 84/139/229 86/61/230 100/57/197 99/135/196
s 29
f 86/61/231 90/62/232 101/58/207 100/57/206
s 31
f 90/62/233 94/65/234 102/63/217 101/58/216
s 32
f 94/65/235 96/142/236 103/140/222 102/63/221
s 30
f 96/142/237 92/56/238 104/54/213 103/140/212
s 28
f 92/56/239 88/52/240 97/48/203 104/54/202
